<?xml version="1.0" standalone="no"?>
<!DOCTYPE svg PUBLIC "-//W3C//DTD SVG 1.1//EN" "http://www.w3.org/Graphics/SVG/1.1/DTD/svg11.dtd">
<!--Generator: Xara Designer (www.xara.com), SVG filter version: 6.3.0.4-->
<svg pointer-events="none" stroke-width="0.501" stroke-linejoin="bevel" fill-rule="evenodd" xmlns:xlink="http://www.w3.org/1999/xlink" xmlns="http://www.w3.org/2000/svg" version="1.1" overflow="visible" width="1077.17pt" height="1077.17pt" viewBox="0 0 1077.17 1077.17">
 <defs>
	</defs>
 <g id="Document" fill="none" stroke="black" font-family="Times New Roman" font-size="16" transform="scale(1 -1)">
  <g id="Spread" transform="translate(0 -1077.17)">
   <g id="Layer 1" pointer-events="auto">
    <g id="Group" stroke-linejoin="round" stroke-width="1.73" fill-rule="evenodd" stroke="#ffffff" fill="currentColor">
     <path d="M 665.047,83.126 L 656.207,113.197 L 668.588,111.426 L 666.818,125.577 L 682.739,120.272 L 680.969,132.652 L 654.438,159.182 L 656.207,164.487 L 668.588,159.182 L 650.897,178.638 L 656.207,189.247 L 670.359,176.867 L 675.663,178.638 L 673.893,189.247 L 682.739,187.483 L 672.123,198.093 L 693.349,198.093 L 707.5,205.168 L 721.65,201.628 L 725.186,196.323 L 732.261,192.788 L 725.186,180.408 L 723.42,171.562 L 737.571,173.332 L 737.571,168.023 L 742.876,157.413 L 737.571,152.107 L 737.571,136.187 L 748.181,130.882 L 755.257,106.122 L 769.407,107.888 L 769.407,95.507 L 735.801,61.901 L 728.726,65.441 L 684.503,67.205 L 677.433,70.747 Z" marker-start="none" marker-end="none"/>
    </g>
   </g>
  </g>
 </g>
</svg>
