<?xml version="1.0" standalone="no"?>
<!DOCTYPE svg PUBLIC "-//W3C//DTD SVG 1.1//EN" "http://www.w3.org/Graphics/SVG/1.1/DTD/svg11.dtd">
<!--Generator: Xara Designer (www.xara.com), SVG filter version: 6.3.0.4-->
<svg pointer-events="none" stroke-width="0.501" stroke-linejoin="bevel" fill-rule="evenodd" xmlns:xlink="http://www.w3.org/1999/xlink" xmlns="http://www.w3.org/2000/svg" version="1.1" overflow="visible" width="1077.17pt" height="1077.17pt" viewBox="0 0 1077.17 1077.17">
 <defs>
	</defs>
 <g id="Document" fill="none" stroke="black" font-family="Times New Roman" font-size="16" transform="scale(1 -1)">
  <g id="Spread" transform="translate(0 -1077.17)">
   <g id="Layer 1" pointer-events="auto">
    <g id="Group" stroke-linejoin="round" stroke-width="1.73" fill-rule="evenodd" stroke="#ffffff" fill="currentColor">
     <path d="M 470.484,581.903 L 479.329,573.058 L 491.71,583.669 L 489.94,590.743 L 495.25,594.283 L 493.48,603.129 L 498.785,585.437 L 511.166,583.669 L 520.011,599.588 L 539.467,601.359 L 551.848,627.888 L 550.083,643.809 L 634.982,643.809 L 617.29,627.888 L 613.755,603.129 L 613.755,594.283 L 615.526,583.669 L 608.451,569.522 L 596.07,565.984 L 590.759,550.063 L 580.149,548.297 L 576.614,564.214 L 555.388,562.447 L 543.008,550.063 L 520.011,546.528 L 505.86,548.297 L 507.63,560.677 L 495.25,562.447 L 470.484,546.528 L 461.643,548.297 L 459.873,557.139 L 452.798,562.447 L 452.798,567.752 L 449.263,581.903 Z" marker-start="none" marker-end="none"/>
    </g>
   </g>
  </g>
 </g>
</svg>
