<?xml version="1.0" standalone="no"?>
<!DOCTYPE svg PUBLIC "-//W3C//DTD SVG 1.1//EN" "http://www.w3.org/Graphics/SVG/1.1/DTD/svg11.dtd">
<!--Generator: Xara Designer (www.xara.com), SVG filter version: 6.3.0.4-->
<svg pointer-events="none" stroke-width="0.501" stroke-linejoin="bevel" fill-rule="evenodd" xmlns:xlink="http://www.w3.org/1999/xlink" xmlns="http://www.w3.org/2000/svg" version="1.1" overflow="visible" width="1077.17pt" height="1077.17pt" viewBox="0 0 1077.17 1077.17">
 <defs>
	</defs>
 <g id="Document" fill="none" stroke="black" font-family="Times New Roman" font-size="16" transform="scale(1 -1)">
  <g id="Spread" transform="translate(0 -1077.17)">
   <g id="Layer 1" pointer-events="auto">
    <g id="Group" stroke-linejoin="round" stroke-width="1.73" fill-rule="evenodd" stroke="#ffffff" fill="currentColor">
     <path d="M 799.474,817.141 L 767.637,824.216 L 753.487,850.747 L 753.487,866.662 L 732.26,877.277 L 728.725,886.118 L 787.092,884.351 L 808.319,893.193 L 811.855,916.188 L 801.243,925.034 L 737.571,949.793 L 716.346,946.253 L 709.27,953.328 L 702.193,948.023 L 691.578,949.793 L 698.655,960.404 L 696.889,965.714 L 679.197,974.553 L 675.664,962.174 L 672.124,974.553 L 666.818,978.094 L 661.514,965.714 L 656.206,974.553 L 647.363,958.639 L 647.363,974.553 L 640.287,974.553 L 640.287,1077.14 L 979.691,1077.14 L 946.279,1017.01 L 937.439,1022.31 L 914.443,999.318 L 912.674,974.553 L 907.369,965.714 L 907.369,992.244 L 896.758,997.55 L 893.219,986.934 L 882.607,974.553 L 870.225,948.023 L 875.533,930.338 L 863.152,926.797 L 847.23,932.108 L 843.694,935.643 L 850.77,944.488 L 836.62,956.867 L 824.239,953.328 L 834.851,923.263 L 845.46,916.188 L 845.46,902.037 L 834.851,905.573 L 827.775,902.037 L 808.319,871.972 L 829.544,856.052 L 826.005,845.437 L 817.165,840.132 L 785.323,854.282 L 781.788,838.366 L 790.634,829.521 L 803.015,822.446 L 799.474,817.141 Z" marker-start="none" marker-end="none"/>
    </g>
   </g>
  </g>
 </g>
</svg>
