<?xml version="1.0" standalone="no"?>
<!DOCTYPE svg PUBLIC "-//W3C//DTD SVG 1.1//EN" "http://www.w3.org/Graphics/SVG/1.1/DTD/svg11.dtd">
<!--Generator: Xara Designer (www.xara.com), SVG filter version: 6.3.0.4-->
<svg pointer-events="none" stroke-width="0.501" stroke-linejoin="bevel" fill-rule="evenodd" xmlns:xlink="http://www.w3.org/1999/xlink" xmlns="http://www.w3.org/2000/svg" version="1.1" overflow="visible" width="1077.17pt" height="1077.17pt" viewBox="0 0 1077.17 1077.17">
 <defs>
	</defs>
 <g id="Document" fill="none" stroke="black" font-family="Times New Roman" font-size="16" transform="scale(1 -1)">
  <g id="Spread" transform="translate(0 -1077.17)">
   <g id="Layer 1" pointer-events="auto">
    <g id="Group" fill-rule="evenodd" stroke-linejoin="round" stroke-width="1.73">
     <path d="M 520.011,546.528 L 505.86,548.297 L 507.63,560.677 L 495.25,562.447 L 470.484,546.528 L 470.484,532.377 L 463.409,525.302 L 466.949,514.692 L 461.643,509.387 L 465.179,484.623 L 509.401,493.467 L 523.547,502.312 L 525.316,509.387 L 516.476,519.997 Z" fill="currentColor" stroke="#ffffff" marker-start="none" marker-end="none"/>
     <g id="Group_1" stroke="none" fill="#ffffff">
      <g id="Group_2">
       <path d="M 504.086,505.847 C 504.086,509.749 500.917,512.917 497.015,512.917 C 493.113,512.917 489.945,509.749 489.945,505.847 C 489.945,501.945 493.113,498.777 497.015,498.777 C 500.917,498.777 504.086,501.945 504.086,505.847 Z" marker-start="none" marker-end="none"/>
      </g>
     </g>
    </g>
   </g>
  </g>
 </g>
</svg>
