<?xml version="1.0" standalone="no"?>
<!DOCTYPE svg PUBLIC "-//W3C//DTD SVG 1.1//EN" "http://www.w3.org/Graphics/SVG/1.1/DTD/svg11.dtd">
<!--Generator: Xara Designer (www.xara.com), SVG filter version: 6.3.0.4-->
<svg pointer-events="none" stroke-width="0.501" stroke-linejoin="bevel" fill-rule="evenodd" xmlns:xlink="http://www.w3.org/1999/xlink" xmlns="http://www.w3.org/2000/svg" version="1.1" overflow="visible" width="1077.17pt" height="1077.17pt" viewBox="0 0 1077.17 1077.17">
 <defs>
	</defs>
 <g id="Document" fill="none" stroke="black" font-family="Times New Roman" font-size="16" transform="scale(1 -1)">
  <g id="Spread" transform="translate(0 -1077.17)">
   <g id="Layer 1" pointer-events="auto">
    <g id="Group" stroke-linejoin="round" stroke-width="1.73" fill-rule="evenodd" stroke="#ffffff" fill="currentColor">
     <path d="M 778.252,222.854 L 760.562,228.158 L 753.487,237.003 L 746.412,252.923 L 751.717,277.684 L 758.792,279.453 L 760.562,284.759 L 764.102,309.52 L 776.482,318.364 L 774.713,330.744 L 788.863,364.35 L 811.855,369.655 L 815.394,366.12 L 811.855,362.58 L 822.469,355.505 L 841.925,359.045 L 845.461,355.505 L 834.85,351.97 L 827.775,339.591 L 843.695,332.516 L 843.695,323.669 L 859.611,318.364 L 863.151,330.744 L 873.762,332.516 L 879.067,339.591 L 896.758,344.894 L 894.988,353.74 L 873.762,348.434 L 857.846,364.35 L 889.682,389.11 L 930.365,412.107 L 932.135,406.801 L 909.138,387.346 L 914.444,376.731 L 919.749,376.731 L 910.909,353.74 L 903.834,355.505 L 902.063,350.2 L 914.444,337.819 L 933.899,336.049 L 979.887,314.83 L 1002.88,311.289 L 1013.49,295.37 L 1008.19,277.684 L 981.656,258.229 L 974.581,259.999 L 919.749,252.923 L 909.138,258.229 L 903.834,254.694 L 887.912,267.075 L 850.77,258.229 L 831.315,242.309 L 820.7,224.624 L 781.788,219.317 Z" marker-start="none" marker-end="none"/>
    </g>
   </g>
  </g>
 </g>
</svg>
