<?xml version="1.0" standalone="no"?>
<!DOCTYPE svg PUBLIC "-//W3C//DTD SVG 1.1//EN" "http://www.w3.org/Graphics/SVG/1.1/DTD/svg11.dtd">
<!--Generator: Xara Designer (www.xara.com), SVG filter version: 6.3.0.4-->
<svg pointer-events="none" stroke-width="0.501" stroke-linejoin="bevel" fill-rule="evenodd" xmlns:xlink="http://www.w3.org/1999/xlink" xmlns="http://www.w3.org/2000/svg" version="1.1" overflow="visible" width="1077.17pt" height="1077.17pt" viewBox="0 0 1077.17 1077.17">
 <defs>
	</defs>
 <g id="Document" fill="none" stroke="black" font-family="Times New Roman" font-size="16" transform="scale(1 -1)">
  <g id="Spread" transform="translate(0 -1077.17)">
   <g id="Layer 1" pointer-events="auto">
    <g id="Group" stroke-linejoin="round" stroke-width="1.73" fill-rule="evenodd" stroke="#ffffff" fill="currentColor">
     <path d="M 550.083,643.809 L 555.388,663.265 L 569.539,668.57 L 580.149,673.875 L 585.454,691.56 L 576.614,709.25 L 565.998,711.015 L 567.768,748.161 L 583.684,774.69 L 606.68,788.841 L 620.831,806.527 L 613.755,818.906 L 617.29,834.827 L 627.906,848.977 L 640.287,843.672 L 650.897,841.902 L 657.972,820.678 L 647.362,818.906 L 634.982,792.376 L 610.22,765.845 L 613.755,749.93 L 619.06,741.086 L 615.526,718.091 L 617.29,707.48 L 631.441,703.945 L 645.591,695.099 L 679.198,705.71 L 711.04,719.859 L 712.805,709.25 L 726.956,707.48 L 732.261,702.174 L 721.65,702.174 L 707.5,693.329 L 705.73,684.484 L 684.503,686.254 L 656.207,682.72 L 652.667,675.645 L 645.591,672.104 L 650.897,661.495 L 657.972,656.19 L 659.743,642.039 L 666.818,631.424 L 659.743,627.888 L 647.362,629.66 L 634.982,643.809 Z" marker-start="none" marker-end="none"/>
    </g>
   </g>
  </g>
 </g>
</svg>
