<?xml version="1.0" standalone="no"?>
<!DOCTYPE svg PUBLIC "-//W3C//DTD SVG 1.1//EN" "http://www.w3.org/Graphics/SVG/1.1/DTD/svg11.dtd">
<!--Generator: Xara Designer (www.xara.com), SVG filter version: 6.3.0.4-->
<svg pointer-events="none" stroke-width="0.501" stroke-linejoin="bevel" fill-rule="evenodd" xmlns:xlink="http://www.w3.org/1999/xlink" xmlns="http://www.w3.org/2000/svg" version="1.1" overflow="visible" width="1077.17pt" height="1077.17pt" viewBox="0 0 1077.17 1077.17">
 <defs>
	</defs>
 <g id="Document" fill="none" stroke="black" font-family="Times New Roman" font-size="16" transform="scale(1 -1)">
  <g id="Spread" transform="translate(0 -1077.17)">
   <g id="Layer 1" pointer-events="auto">
    <g id="Group" fill-rule="evenodd" stroke-linejoin="round" stroke-width="1.73">
     <path d="M 265.31,468.705 L 254.7,470.472 L 251.159,481.086 L 240.549,484.623 L 240.549,456.321 L 219.323,461.631 L 215.783,470.472 L 180.412,472.242 L 176.871,463.397 L 182.176,452.786 L 192.791,451.016 L 217.552,424.486 L 215.783,413.876 L 217.552,401.495 L 226.399,390.88 L 258.234,387.346 L 258.234,436.866 L 261.77,451.016 Z" fill="currentColor" stroke="#ffffff" marker-start="none" marker-end="none"/>
     <g class="supply-center-dot" stroke="none" fill="#ffffff">
      <g id="Group_2">
       <path d="M 194.557,463.397 C 194.557,467.298 191.388,470.467 187.486,470.467 C 183.584,470.467 180.416,467.298 180.416,463.397 C 180.416,459.495 183.584,456.326 187.486,456.326 C 191.388,456.326 194.557,459.495 194.557,463.397 Z" marker-start="none" marker-end="none"/>
      </g>
     </g>
    </g>
   </g>
  </g>
 </g>
</svg>
