<?xml version="1.0" standalone="no"?>
<!DOCTYPE svg PUBLIC "-//W3C//DTD SVG 1.1//EN" "http://www.w3.org/Graphics/SVG/1.1/DTD/svg11.dtd">
<!--Generator: Xara Designer (www.xara.com), SVG filter version: 6.3.0.4-->
<svg pointer-events="none" stroke-width="0.501" stroke-linejoin="bevel" fill-rule="evenodd" xmlns:xlink="http://www.w3.org/1999/xlink" xmlns="http://www.w3.org/2000/svg" version="1.1" overflow="visible" width="1077.17pt" height="1077.17pt" viewBox="0 0 1077.17 1077.17">
 <defs>
	</defs>
 <g id="Document" fill="none" stroke="black" font-family="Times New Roman" font-size="16" transform="scale(1 -1)">
  <g id="Spread" transform="translate(0 -1077.17)">
   <g id="Layer 1" pointer-events="auto">
    <g id="Group" fill-rule="evenodd" stroke-linejoin="round" stroke-width="1.73">
     <path d="M 721.65,201.628 L 725.186,196.323 L 732.261,192.788 L 725.186,180.408 L 723.42,171.562 L 737.571,173.332 L 737.571,168.023 L 748.181,171.562 L 764.102,160.948 L 799.474,157.413 L 824.239,164.487 L 827.775,185.713 L 827.775,217.548 L 820.7,224.624 L 781.788,219.317 L 778.252,222.854 L 760.562,228.158 L 753.487,237.003 L 742.876,235.233 L 728.726,229.929 L 730.495,212.243 Z" fill="currentColor" stroke="#ffffff" marker-start="none" marker-end="none"/>
     <path d="M 732.261,192.788 L 744.646,206.937 L 769.407,214.012 L 778.252,222.854 L 781.788,219.317 L 776.482,214.012 L 792.399,212.243 L 751.717,192.788 Z" stroke="#ffffff" fill="#bae6fd" marker-start="none" marker-end="none"/>
     <g id="Group_1" stroke="none" fill="#ffffff">
      <g id="Group_2">
       <path d="M 765.862,219.318 C 765.862,223.22 762.694,226.388 758.792,226.388 C 754.89,226.388 751.721,223.22 751.721,219.318 C 751.721,215.416 754.89,212.248 758.792,212.248 C 762.694,212.248 765.862,215.416 765.862,219.318 Z" marker-start="none" marker-end="none"/>
      </g>
     </g>
    </g>
   </g>
  </g>
 </g>
</svg>
