<?xml version="1.0" standalone="no"?>
<!DOCTYPE svg PUBLIC "-//W3C//DTD SVG 1.1//EN" "http://www.w3.org/Graphics/SVG/1.1/DTD/svg11.dtd">
<!--Generator: Xara Designer (www.xara.com), SVG filter version: 6.3.0.4-->
<svg pointer-events="none" stroke-width="0.501" stroke-linejoin="bevel" fill-rule="evenodd" xmlns:xlink="http://www.w3.org/1999/xlink" xmlns="http://www.w3.org/2000/svg" version="1.1" overflow="visible" width="1077.17pt" height="1077.17pt" viewBox="0 0 1077.17 1077.17">
 <defs>
	</defs>
 <g id="Document" fill="none" stroke="black" font-family="Times New Roman" font-size="16" transform="scale(1 -1)">
  <g id="Spread" transform="translate(0 -1077.17)">
   <g id="Layer 1" pointer-events="auto">
    <g id="Group" fill-rule="evenodd" stroke-linejoin="round" stroke-width="1.73">
     <path d="M 493.48,603.129 L 486.405,604.893 L 475.794,603.129 L 470.484,608.434 L 472.254,619.044 L 470.484,642.039 L 465.179,638.5 L 438.648,636.734 L 433.342,613.738 L 429.803,596.054 L 431.572,583.669 L 449.263,581.903 L 470.484,581.903 L 479.329,573.058 L 491.71,583.669 L 489.94,590.743 L 495.25,594.283 Z" fill="currentColor" stroke="#ffffff" marker-start="none" marker-end="none"/>
     <path class="sea-region" d="M 475.794,603.129 L 474.024,597.818 L 465.179,596.054 L 470.484,581.903 L 449.263,581.903 L 454.568,596.054 L 470.484,608.434 Z" stroke="#ffffff" fill="#bae6fd" marker-start="none" marker-end="none" />
     <g class="supply-center-dot" stroke="none" fill="#ffffff">
      <g id="Group_2">
       <path d="M 488.17,587.208 C 488.17,591.11 485.001,594.278 481.099,594.278 C 477.198,594.278 474.029,591.11 474.029,587.208 C 474.029,583.306 477.198,580.138 481.099,580.138 C 485.001,580.138 488.17,583.306 488.17,587.208 Z" marker-start="none" marker-end="none"/>
      </g>
     </g>
    </g>
   </g>
  </g>
 </g>
</svg>
