<?xml version="1.0" standalone="no"?>
<!DOCTYPE svg PUBLIC "-//W3C//DTD SVG 1.1//EN" "http://www.w3.org/Graphics/SVG/1.1/DTD/svg11.dtd">
<!--Generator: Xara Designer (www.xara.com), SVG filter version: 6.3.0.4-->
<svg pointer-events="none" stroke-width="0.501" stroke-linejoin="bevel" fill-rule="evenodd" xmlns:xlink="http://www.w3.org/1999/xlink" xmlns="http://www.w3.org/2000/svg" version="1.1" overflow="visible" width="1077.17pt" height="1077.17pt" viewBox="0 0 1077.17 1077.17">
 <defs>
	</defs>
 <g id="Document" fill="none" stroke="black" font-family="Times New Roman" font-size="16" transform="scale(1 -1)">
  <g id="Spread" transform="translate(0 -1077.17)">
   <g id="Layer 1" pointer-events="auto">
    <g id="Group" fill-rule="evenodd" stroke-linejoin="round" stroke-width="1.73">
     <path d="M 268.845,689.795 L 279.461,691.56 L 302.451,684.484 L 300.687,675.645 L 291.841,661.495 L 279.461,654.419 L 267.08,652.649 L 277.69,650.879 L 284.766,647.344 L 288.306,633.193 L 274.155,629.66 L 256.464,649.114 L 254.7,656.19 L 258.234,679.179 Z" fill="currentColor" stroke="#ffffff" marker-start="none" marker-end="none"/>
     <g id="Group_1" stroke="none" fill="#ffffff">
      <g id="Group_2">
       <path d="M 279.456,645.574 C 279.456,649.476 276.287,652.644 272.385,652.644 C 268.483,652.644 265.315,649.476 265.315,645.574 C 265.315,641.672 268.483,638.504 272.385,638.504 C 276.287,638.504 279.456,641.672 279.456,645.574 Z" marker-start="none" marker-end="none"/>
      </g>
     </g>
    </g>
   </g>
  </g>
 </g>
</svg>
