<?xml version="1.0" standalone="no"?>
<!DOCTYPE svg PUBLIC "-//W3C//DTD SVG 1.1//EN" "http://www.w3.org/Graphics/SVG/1.1/DTD/svg11.dtd">
<!--Generator: Xara Designer (www.xara.com), SVG filter version: 6.3.0.4-->
<svg pointer-events="none" stroke-width="0.501" stroke-linejoin="bevel" fill-rule="evenodd" xmlns:xlink="http://www.w3.org/1999/xlink" xmlns="http://www.w3.org/2000/svg" version="1.1" overflow="visible" width="1077.17pt" height="1077.17pt" viewBox="0 0 1077.17 1077.17">
 <defs>
	</defs>
 <g id="Document" fill="none" stroke="black" font-family="Times New Roman" font-size="16" transform="scale(1 -1)">
  <g id="Spread" transform="translate(0 -1077.17)">
   <g id="Layer 1" pointer-events="auto">
    <g id="Group" stroke-linejoin="round" stroke-width="1.73" fill="currentColor" fill-rule="evenodd" stroke="#ffffff">
     <path d="M 640.287,843.672 L 650.897,841.902 L 657.972,820.678 L 647.362,818.906 L 634.982,792.376 L 610.22,765.845 L 613.755,749.93 L 619.06,741.086 L 615.526,718.091 L 617.29,707.48 L 631.441,703.945 L 645.591,695.099 L 679.198,705.71 L 711.04,719.859 L 728.726,748.161 L 725.186,764.081 L 732.261,772.922 L 725.186,802.991 L 711.04,824.216 L 709.27,838.366 L 693.349,870.203 L 695.119,903.807 L 684.503,912.648 L 686.274,925.034 L 682.739,930.338 L 686.274,937.413 L 670.359,948.023 L 654.438,946.253 L 652.667,925.034 L 627.906,923.263 L 611.985,937.413 L 604.91,925.034 L 629.676,907.343 Z" marker-start="none" marker-end="none"/>
    </g>
   </g>
  </g>
 </g>
</svg>
