<?xml version="1.0" standalone="no"?>
<!DOCTYPE svg PUBLIC "-//W3C//DTD SVG 1.1//EN" "http://www.w3.org/Graphics/SVG/1.1/DTD/svg11.dtd">
<!--Generator: Xara Designer (www.xara.com), SVG filter version: 6.3.0.4-->
<svg pointer-events="none" stroke-width="0.501" stroke-linejoin="bevel" fill-rule="evenodd" xmlns:xlink="http://www.w3.org/1999/xlink" xmlns="http://www.w3.org/2000/svg" version="1.1" overflow="visible" width="1077.17pt" height="1077.17pt" viewBox="0 0 1077.17 1077.17">
 <defs>
	</defs>
 <g id="Document" fill="none" stroke="black" font-family="Times New Roman" font-size="16" transform="scale(1 -1)">
  <g id="Spread" transform="translate(0 -1077.17)">
   <g id="Layer 1" pointer-events="auto">
    <g id="Group" stroke-linejoin="round" stroke-width="1.73" fill="currentColor" fill-rule="evenodd" stroke="#ffffff">
     <path d="M 588.995,449.252 L 603.145,449.252 L 608.451,445.711 L 624.366,454.556 L 629.676,461.631 L 638.516,459.861 L 649.132,451.016 L 661.513,454.556 L 670.359,459.861 L 677.433,454.556 L 680.969,445.711 L 705.73,435.101 L 714.575,406.801 L 712.805,396.184 L 714.575,376.731 L 696.889,367.891 L 679.198,387.346 L 668.588,390.88 L 666.818,396.184 L 650.897,408.57 L 636.751,412.107 L 619.06,419.182 L 596.07,413.876 L 581.919,420.951 L 569.539,419.182 L 567.768,433.331 L 569.539,419.182 L 567.768,433.331 L 574.844,431.562 L 581.919,435.101 Z" marker-start="none" marker-end="none"/>
    </g>
   </g>
  </g>
 </g>
</svg>
