<?xml version="1.0" standalone="no"?>
<!DOCTYPE svg PUBLIC "-//W3C//DTD SVG 1.1//EN" "http://www.w3.org/Graphics/SVG/1.1/DTD/svg11.dtd">
<!--Generator: Xara Designer (www.xara.com), SVG filter version: 6.3.0.4-->
<svg pointer-events="none" stroke-width="0.501" stroke-linejoin="bevel" fill-rule="evenodd" xmlns:xlink="http://www.w3.org/1999/xlink" xmlns="http://www.w3.org/2000/svg" version="1.1" overflow="visible" width="1077.17pt" height="1077.17pt" viewBox="0 0 1077.17 1077.17">
 <defs>
	</defs>
 <g id="Document" fill="none" stroke="black" font-family="Times New Roman" font-size="16" transform="scale(1 -1)">
  <g id="Spread" transform="translate(0 -1077.17)">
   <g id="Layer 1" pointer-events="auto">
    <g id="Group" fill-rule="evenodd" stroke-linejoin="round" stroke-width="1.73">
     <path d="M 599.604,171.562 L 611.985,152.107 L 619.06,152.107 L 613.755,148.567 L 622.601,134.418 L 649.132,136.187 L 656.207,129.112 L 627.906,130.882 L 619.06,123.807 L 631.441,111.426 L 634.982,90.202 L 636.751,99.047 L 649.132,84.896 L 650.897,93.741 L 665.047,83.126 L 656.207,113.197 L 668.588,111.426 L 666.818,125.577 L 682.739,120.272 L 680.969,132.652 L 654.438,159.182 L 656.207,164.487 L 668.588,159.182 L 650.897,178.638 L 656.207,189.247 L 670.359,176.867 L 675.663,178.638 L 673.893,189.247 L 682.739,187.483 L 672.123,198.093 L 693.349,198.093 L 686.274,219.317 L 665.047,212.243 L 652.667,212.243 L 638.516,206.937 L 629.676,199.862 L 619.06,199.862 L 619.06,189.247 Z" fill="currentColor" stroke="#ffffff" marker-start="none" marker-end="none"/>
     <g class="supply-center-dot" stroke="none" fill="#ffffff">
      <g id="Group_2">
       <path d="M 675.658,136.187 C 675.658,140.089 672.49,143.257 668.588,143.257 C 664.686,143.257 661.517,140.089 661.517,136.187 C 661.517,132.285 664.686,129.117 668.588,129.117 C 672.49,129.117 675.658,132.285 675.658,136.187 Z" marker-start="none" marker-end="none"/>
      </g>
     </g>
    </g>
   </g>
  </g>
 </g>
</svg>
