<?xml version="1.0" standalone="no"?>
<!DOCTYPE svg PUBLIC "-//W3C//DTD SVG 1.1//EN" "http://www.w3.org/Graphics/SVG/1.1/DTD/svg11.dtd">
<!--Generator: Xara Designer (www.xara.com), SVG filter version: 6.3.0.4-->
<svg pointer-events="none" stroke-width="0.501" stroke-linejoin="bevel" fill-rule="evenodd" xmlns:xlink="http://www.w3.org/1999/xlink" xmlns="http://www.w3.org/2000/svg" version="1.1" overflow="visible" width="1077.17pt" height="1077.17pt" viewBox="0 0 1077.17 1077.17">
 <defs>
	</defs>
 <g id="Document" fill="none" stroke="black" font-family="Times New Roman" font-size="16" transform="scale(1 -1)">
  <g id="Spread" transform="translate(0 -1077.17)">
   <g id="Layer 1" pointer-events="auto">
    <g id="Group" fill-rule="evenodd" stroke-linejoin="round" stroke="#ffffff" stroke-width="1.73" fill="currentColor">
     <path d="M 511.166,129.112 L 512.936,123.807 L 521.781,122.037 L 544.772,148.567 L 550.083,164.487 L 537.697,176.867 L 548.312,183.942 L 562.463,175.098 L 569.539,175.098 L 569.539,183.942 L 592.529,183.942 L 599.604,171.562 L 611.985,152.107 L 619.06,152.107 L 613.755,148.567 L 622.601,134.418 L 649.132,136.187 L 656.207,129.112 L 627.906,130.882 L 619.06,123.807 L 631.441,111.426 L 634.982,90.202 L 636.751,99.047 L 649.132,84.896 L 650.897,93.741 L 665.047,83.126 L 677.433,70.747 L 672.123,65.441 L 677.433,60.136 L 707.5,53.061 L 707.501,-0.001 L 399.286,-0.001 L 413.886,58.366 L 410.347,70.747 L 397.966,86.666 L 408.581,93.741 L 417.422,106.122 L 436.878,125.577 L 456.334,114.963 L 482.869,93.741 L 497.015,91.972 L 498.785,111.426 L 504.091,125.577 L 504.091,129.112 Z" marker-start="none" marker-end="none"/>
    </g>
   </g>
  </g>
 </g>
</svg>
