<?xml version="1.0" standalone="no"?>
<!DOCTYPE svg PUBLIC "-//W3C//DTD SVG 1.1//EN" "http://www.w3.org/Graphics/SVG/1.1/DTD/svg11.dtd">
<!--Generator: Xara Designer (www.xara.com), SVG filter version: 6.3.0.4-->
<svg pointer-events="none" stroke-width="0.501" stroke-linejoin="bevel" fill-rule="evenodd" xmlns:xlink="http://www.w3.org/1999/xlink" xmlns="http://www.w3.org/2000/svg" version="1.1" overflow="visible" width="1077.17pt" height="1077.17pt" viewBox="0 0 1077.17 1077.17">
 <defs>
	</defs>
 <g id="Document" fill="none" stroke="black" font-family="Times New Roman" font-size="16" transform="scale(1 -1)">
  <g id="Spread" transform="translate(0 -1077.17)">
   <g id="Layer 1" pointer-events="auto">
    <g id="Group" fill-rule="evenodd" stroke-linejoin="round" stroke-width="1.73">
     <path d="M 431.572,583.669 L 429.803,578.362 L 433.342,567.752 L 431.572,555.372 L 431.572,550.063 L 415.656,542.992 L 413.886,548.297 L 406.811,550.063 L 399.736,546.528 L 401.506,537.683 L 397.966,516.458 L 389.125,505.847 L 380.28,507.617 L 376.74,498.773 L 410.347,488.161 L 426.267,474.012 L 429.803,463.397 L 465.179,484.623 L 461.643,509.387 L 466.949,514.692 L 463.409,525.302 L 470.484,532.377 L 470.484,546.528 L 461.643,548.297 L 459.873,557.139 L 452.798,562.447 L 452.798,567.752 L 449.263,581.903 Z" fill="currentColor" stroke="#ffffff" marker-start="none" marker-end="none"/>
     <path d="M 431.572,555.372 L 431.572,550.063 L 452.798,562.447 L 452.798,567.752 Z" stroke="#ffffff" fill="#bae6fd" marker-start="none" marker-end="none"/>
     <g id="Group_1" stroke="none" fill="#ffffff">
      <g id="Group_2">
       <path d="M 456.333,541.223 C 456.333,545.124 453.165,548.293 449.263,548.293 C 445.361,548.293 442.193,545.124 442.193,541.223 C 442.193,537.321 445.361,534.152 449.263,534.152 C 453.165,534.152 456.333,537.321 456.333,541.223 Z" marker-start="none" marker-end="none"/>
      </g>
     </g>
    </g>
   </g>
  </g>
 </g>
</svg>
