<?xml version="1.0" standalone="no"?>
<!DOCTYPE svg PUBLIC "-//W3C//DTD SVG 1.1//EN" "http://www.w3.org/Graphics/SVG/1.1/DTD/svg11.dtd">
<!--Generator: Xara Designer (www.xara.com), SVG filter version: 6.3.0.4-->
<svg pointer-events="none" stroke-width="0.501" stroke-linejoin="bevel" fill-rule="evenodd" xmlns:xlink="http://www.w3.org/1999/xlink" xmlns="http://www.w3.org/2000/svg" version="1.1" overflow="visible" width="1077.17pt" height="1077.17pt" viewBox="0 0 1077.17 1077.17">
 <defs>
	</defs>
 <g id="Document" fill="none" stroke="black" font-family="Times New Roman" font-size="16" transform="scale(1 -1)">
  <g id="Spread" transform="translate(0 -1077.17)">
   <g id="Layer 1" pointer-events="auto">
    <g id="Group" stroke-linejoin="round" stroke-width="1.73" fill="currentColor" fill-rule="evenodd" stroke="#ffffff">
     <path d="M 652.667,675.645 L 645.591,672.104 L 650.897,661.495 L 657.972,656.19 L 659.743,642.039 L 666.818,631.424 L 659.743,627.888 L 647.362,629.66 L 634.982,643.809 L 617.29,627.888 L 613.755,603.129 L 626.136,588.978 L 629.676,571.288 L 640.287,573.058 L 649.132,564.214 L 645.591,535.917 L 657.972,532.377 L 670.359,519.997 L 688.044,528.843 L 693.349,541.222 L 714.575,546.528 L 716.345,610.204 L 723.42,629.66 L 716.345,649.114 L 696.889,670.339 L 675.663,668.57 L 657.972,670.339 Z" marker-start="none" marker-end="none"/>
    </g>
   </g>
  </g>
 </g>
</svg>
