<?xml version="1.0" standalone="no"?>
<!DOCTYPE svg PUBLIC "-//W3C//DTD SVG 1.1//EN" "http://www.w3.org/Graphics/SVG/1.1/DTD/svg11.dtd">
<!--Generator: Xara Designer (www.xara.com), SVG filter version: 6.3.0.4-->
<svg pointer-events="none" stroke-width="0.501" stroke-linejoin="bevel" fill-rule="evenodd" xmlns:xlink="http://www.w3.org/1999/xlink" xmlns="http://www.w3.org/2000/svg" version="1.1" overflow="visible" width="1077.17pt" height="1077.17pt" viewBox="0 0 1077.17 1077.17">
 <defs>
	</defs>
 <g id="Document" fill="none" stroke="black" font-family="Times New Roman" font-size="16" transform="scale(1 -1)">
  <g id="Spread" transform="translate(0 -1077.17)">
   <g id="Layer 1" pointer-events="auto">
    <g id="Group" stroke-linejoin="round" stroke-width="1.73" fill-rule="evenodd" stroke="#ffffff" fill="currentColor">
     <path d="M 203.402,203.398 L 194.562,217.548 L 219.323,247.619 L 231.703,256.458 L 258.234,258.229 L 277.69,268.839 L 279.461,281.224 L 279.461,293.604 L 298.917,304.214 L 311.297,295.37 L 332.523,286.529 L 350.209,288.3 L 373.205,297.139 L 392.661,307.754 L 412.117,298.908 L 420.962,270.608 L 396.196,270.608 L 390.891,265.303 L 373.205,261.763 L 376.74,235.233 L 385.585,229.929 L 385.585,222.854 L 378.51,217.548 L 364.36,215.779 L 362.589,208.703 L 272.386,208.703 L 261.77,214.012 L 251.159,203.398 Z" marker-start="none" marker-end="none"/>
    </g>
   </g>
  </g>
 </g>
</svg>
