<?xml version="1.0" standalone="no"?>
<!DOCTYPE svg PUBLIC "-//W3C//DTD SVG 1.1//EN" "http://www.w3.org/Graphics/SVG/1.1/DTD/svg11.dtd">
<!--Generator: Xara Designer (www.xara.com), SVG filter version: 6.3.0.4-->
<svg pointer-events="none" stroke-width="0.501" stroke-linejoin="bevel" fill-rule="evenodd" xmlns:xlink="http://www.w3.org/1999/xlink" xmlns="http://www.w3.org/2000/svg" version="1.1" overflow="visible" width="1077.17pt" height="1077.17pt" viewBox="0 0 1077.17 1077.17">
 <defs>
	</defs>
 <g id="Document" fill="none" stroke="black" font-family="Times New Roman" font-size="16" transform="scale(1 -1)">
  <g id="Spread" transform="translate(0 -1077.17)">
   <g id="Layer 1" pointer-events="auto">
    <g id="Group" stroke-linejoin="round" stroke-width="1.73" fill-rule="evenodd" stroke="#ffffff" fill="currentColor">
     <path d="M 180.412,472.242 L 176.871,463.397 L 182.176,452.786 L 192.791,451.016 L 217.552,424.486 L 215.783,413.876 L 217.552,401.495 L 226.399,390.88 L 214.018,357.275 L 215.783,353.74 L 198.097,327.21 L 178.641,332.516 L 169.796,330.744 L 127.348,353.74 L 104.353,359.045 L 95.508,369.655 L 84.897,371.425 L 81.357,364.35 L 68.976,369.655 L 58.366,359.045 L 61.901,353.74 L 56.596,332.516 L 53.06,314.83 L 30.065,277.684 L 24.759,277.684 L 17.684,267.075 L 22.989,254.694 L 26.529,252.923 L 21.22,237.003 L 22.989,229.929 L 14.143,215.779 L 33.599,203.398 L 47.751,205.168 L 58.366,192.788 L 60.135,176.867 L 65.441,166.257 L 65.441,157.413 L 58.366,155.642 L 30.065,116.732 L -0.002,113.197 L -0.002,550.063 L 102.583,550.063 Z" marker-start="none" marker-end="none"/>
    </g>
   </g>
  </g>
 </g>
</svg>
