<?xml version="1.0" standalone="no"?>
<!DOCTYPE svg PUBLIC "-//W3C//DTD SVG 1.1//EN" "http://www.w3.org/Graphics/SVG/1.1/DTD/svg11.dtd">
<!--Generator: Xara Designer (www.xara.com), SVG filter version: 6.3.0.4-->
<svg pointer-events="none" stroke-width="0.501" stroke-linejoin="bevel" fill-rule="evenodd" xmlns:xlink="http://www.w3.org/1999/xlink" xmlns="http://www.w3.org/2000/svg" version="1.1" overflow="visible" width="1077.17pt" height="1077.17pt" viewBox="0 0 1077.17 1077.17">
 <defs>
	</defs>
 <g id="Document" fill="none" stroke="black" font-family="Times New Roman" font-size="16" transform="scale(1 -1)">
  <g id="Spread" transform="translate(0 -1077.17)">
   <g id="Layer 1" pointer-events="auto">
    <g id="Group" fill-rule="evenodd" stroke-linejoin="round" stroke-width="1.73">
     <path d="M 1077.17,825.982 L 1057.71,799.452 L 1013.49,779.996 L 997.578,751.695 L 944.515,742.855 L 910.909,734.011 L 864.922,707.48 L 841.925,709.25 L 810.089,689.795 L 806.549,666.799 L 808.319,661.495 L 797.708,656.19 L 790.633,663.265 L 776.482,659.724 L 757.027,634.963 L 744.646,627.888 L 723.42,629.66 L 716.345,610.204 L 714.575,546.528 L 693.349,541.222 L 688.044,528.843 L 670.359,519.997 L 682.739,486.392 L 689.814,491.698 L 806.549,516.458 L 827.775,511.153 L 843.695,521.768 L 873.762,511.153 L 893.218,537.683 L 912.674,527.072 L 930.365,525.302 L 942.745,532.377 L 971.047,530.607 L 979.887,495.237 L 997.578,493.467 L 1006.42,465.167 L 1055.94,449.252 L 1077.17,449.252 Z" fill="currentColor" stroke="#ffffff" marker-start="none" marker-end="none"/>
     <g id="Group_1" stroke="none" fill="#ffffff">
      <g id="Group_2">
       <path d="M 857.841,619.044 C 857.841,622.945 854.673,626.114 850.771,626.114 C 846.869,626.114 843.7,622.945 843.7,619.044 C 843.7,615.142 846.869,611.973 850.771,611.973 C 854.673,611.973 857.841,615.142 857.841,619.044 Z" marker-start="none" marker-end="none"/>
      </g>
     </g>
    </g>
   </g>
  </g>
 </g>
</svg>
