<?xml version="1.0" standalone="no"?>
<!DOCTYPE svg PUBLIC "-//W3C//DTD SVG 1.1//EN" "http://www.w3.org/Graphics/SVG/1.1/DTD/svg11.dtd">
<!--Generator: Xara Designer (www.xara.com), SVG filter version: 6.3.0.4-->
<svg pointer-events="none" stroke-width="0.501" stroke-linejoin="bevel" fill-rule="evenodd" xmlns:xlink="http://www.w3.org/1999/xlink" xmlns="http://www.w3.org/2000/svg" version="1.1" overflow="visible" width="1077.17pt" height="1077.17pt" viewBox="0 0 1077.17 1077.17">
 <defs>
	</defs>
 <g id="Document" fill="none" stroke="black" font-family="Times New Roman" font-size="16" transform="scale(1 -1)">
  <g id="Spread" transform="translate(0 -1077.17)">
   <g id="Layer 1" pointer-events="auto">
    <g id="Group" fill-rule="evenodd" stroke-linejoin="round" stroke-width="1.73">
     <path d="M 413.886,385.576 L 429.803,378.5 L 435.112,380.27 L 442.187,376.731 L 472.254,382.041 L 479.329,378.5 L 475.794,392.651 L 486.405,392.651 L 497.015,403.26 L 488.174,420.951 L 474.024,426.256 L 466.949,451.016 L 470.484,458.092 L 491.71,456.321 L 509.401,465.167 L 502.325,477.547 L 509.401,493.467 L 465.179,484.623 L 429.803,463.397 L 419.192,463.397 L 387.355,424.486 L 373.205,420.951 L 376.74,410.335 L 369.664,390.88 L 392.661,387.346 L 397.966,392.651 L 410.347,390.88 Z" fill="currentColor" stroke="#ffffff" marker-start="none" marker-end="none"/>
     <g class="supply-center-dot" stroke="none" fill="#ffffff">
      <g id="Group_2">
       <path d="M 463.404,397.956 C 463.404,401.857 460.235,405.026 456.333,405.026 C 452.432,405.026 449.263,401.857 449.263,397.956 C 449.263,394.054 452.432,390.885 456.333,390.885 C 460.235,390.885 463.404,394.054 463.404,397.956 Z" marker-start="none" marker-end="none"/>
      </g>
     </g>
    </g>
   </g>
  </g>
 </g>
</svg>
