<?xml version="1.0" standalone="no"?>
<!DOCTYPE svg PUBLIC "-//W3C//DTD SVG 1.1//EN" "http://www.w3.org/Graphics/SVG/1.1/DTD/svg11.dtd">
<!--Generator: Xara Designer (www.xara.com), SVG filter version: 6.3.0.4-->
<svg pointer-events="none" stroke-width="0.501" stroke-linejoin="bevel" fill-rule="evenodd" xmlns:xlink="http://www.w3.org/1999/xlink" xmlns="http://www.w3.org/2000/svg" version="1.1" overflow="visible" width="1077.17pt" height="1077.17pt" viewBox="0 0 1077.17 1077.17">
 <defs>
	</defs>
 <g id="Document" fill="none" stroke="black" font-family="Times New Roman" font-size="16" transform="scale(1 -1)">
  <g id="Spread" transform="translate(0 -1077.17)">
   <g id="Layer 1" pointer-events="auto">
    <g id="Group" fill-rule="evenodd" stroke-linejoin="round" stroke="#ffffff" stroke-width="1.73" fill="currentColor">
     <path d="M -0.002,550.063 L -0.002,1077.14 L 261.77,1077.14 L 261.77,719.859 L 247.624,711.015 L 245.854,698.635 L 228.163,684.484 L 229.933,665.029 L 244.084,654.419 L 244.084,649.114 L 229.933,638.5 L 229.933,631.424 L 212.247,631.424 L 210.477,649.114 L 194.562,657.953 L 178.641,657.953 L 171.565,650.879 L 166.26,650.879 L 168.026,647.344 L 166.26,643.809 L 157.415,643.809 L 145.034,649.114 L 137.959,647.344 L 141.495,634.963 L 130.884,629.66 L 143.264,619.044 L 125.578,599.588 L 118.503,604.893 L 113.198,590.743 L 123.809,571.288 L 102.583,550.063 L -0.002,550.063 Z" marker-start="none" marker-end="none"/>
    </g>
   </g>
  </g>
 </g>
</svg>
