<?xml version="1.0" standalone="no"?>
<!DOCTYPE svg PUBLIC "-//W3C//DTD SVG 1.1//EN" "http://www.w3.org/Graphics/SVG/1.1/DTD/svg11.dtd">
<!--Generator: Xara Designer (www.xara.com), SVG filter version: 6.3.0.4-->
<svg pointer-events="none" stroke-width="0.501" stroke-linejoin="bevel" fill-rule="evenodd" xmlns:xlink="http://www.w3.org/1999/xlink" xmlns="http://www.w3.org/2000/svg" version="1.1" overflow="visible" width="1077.17pt" height="1077.17pt" viewBox="0 0 1077.17 1077.17">
 <defs>
	</defs>
 <g id="Document" fill="none" stroke="black" font-family="Times New Roman" font-size="16" transform="scale(1 -1)">
  <g id="Spread" transform="translate(0 -1077.17)">
   <g id="Layer 1" pointer-events="auto">
    <g id="Group" stroke-linejoin="round" stroke-width="1.73" stroke="#ffffff" fill="currentColor">
     <path d="M 288.306,633.193 L 284.766,647.344 L 277.69,650.879 L 267.08,652.649 L 279.461,654.419 L 291.841,661.495 L 300.687,675.645 L 302.451,684.484 L 302.451,712.784 L 350.209,760.541 L 417.422,760.541 L 419.192,749.93 L 412.117,737.55 L 408.581,714.555 L 412.117,703.945 L 405.041,693.329 L 408.581,677.409 L 426.267,663.265 L 426.267,636.734 L 438.648,636.734 L 433.342,613.738 L 373.205,613.738 L 373.205,548.297 L 366.13,539.453 L 362.589,539.453 L 362.589,544.758 L 350.209,521.768 L 337.829,504.077 L 305.992,500.542 L 297.146,509.387 L 304.221,512.921 L 291.841,514.692 L 311.297,532.377 L 314.837,548.297 L 313.067,555.372 L 302.451,558.908 L 297.146,555.372 L 293.611,557.139 L 298.917,564.214 L 300.687,587.208 L 297.146,597.818 L 288.306,610.204 L 288.306,633.193 Z" marker-start="none" marker-end="none"/>
    </g>
   </g>
  </g>
 </g>
</svg>
