<?xml version="1.0" standalone="no"?>
<!DOCTYPE svg PUBLIC "-//W3C//DTD SVG 1.1//EN" "http://www.w3.org/Graphics/SVG/1.1/DTD/svg11.dtd">
<!--Generator: Xara Designer (www.xara.com), SVG filter version: 6.3.0.4-->
<svg pointer-events="none" stroke-width="0.501" stroke-linejoin="bevel" fill-rule="evenodd" xmlns:xlink="http://www.w3.org/1999/xlink" xmlns="http://www.w3.org/2000/svg" version="1.1" overflow="visible" width="1077.17pt" height="1077.17pt" viewBox="0 0 1077.17 1077.17">
 <defs>
	</defs>
 <g id="Document" fill="none" stroke="black" font-family="Times New Roman" font-size="16" transform="scale(1 -1)">
  <g id="Spread" transform="translate(0 -1077.17)">
   <g id="Layer 1" pointer-events="auto">
    <g id="Group" fill-rule="evenodd" stroke-linejoin="round" stroke-width="1.73">
     <path d="M 702.194,948.023 L 691.578,949.793 L 698.654,960.404 L 696.889,965.714 L 679.198,974.553 L 675.663,962.174 L 672.123,974.553 L 666.818,978.094 L 661.513,965.714 L 656.207,974.553 L 647.362,958.639 L 647.362,974.553 L 640.287,974.553 L 631.441,963.942 L 606.68,955.098 L 573.073,937.413 L 565.998,919.722 L 548.312,900.268 L 546.542,884.351 L 535.932,880.813 L 516.476,836.597 L 489.94,799.452 L 475.794,795.916 L 466.949,781.766 L 456.334,783.536 L 417.422,760.541 L 419.192,749.93 L 412.117,737.55 L 408.581,714.555 L 412.117,703.945 L 405.041,693.329 L 408.581,677.409 L 426.267,663.265 L 435.112,661.495 L 470.484,677.409 L 477.56,691.56 L 486.405,673.875 L 493.48,672.104 L 507.63,719.859 L 504.091,732.24 L 512.936,742.855 L 516.476,797.686 L 532.392,799.452 L 530.622,810.065 L 546.542,829.521 L 544.772,848.977 L 550.083,854.282 L 573.073,907.343 L 587.224,902.037 L 583.684,919.722 L 603.145,917.957 L 604.91,925.034 L 611.985,937.413 L 627.906,923.263 L 652.667,925.034 L 654.438,946.253 L 670.359,948.023 L 686.274,937.413 L 682.739,930.338 L 686.274,925.034 Z" fill="currentColor" stroke="#ffffff" marker-start="none" marker-end="none"/>
     <g class="supply-center-dot" stroke="none" fill="#ffffff">
      <g id="Group_2">
       <path d="M 484.63,702.175 C 484.63,706.077 481.461,709.245 477.559,709.245 C 473.657,709.245 470.489,706.077 470.489,702.175 C 470.489,698.273 473.657,695.105 477.559,695.105 C 481.461,695.105 484.63,698.273 484.63,702.175 Z" marker-start="none" marker-end="none"/>
      </g>
     </g>
    </g>
   </g>
  </g>
 </g>
</svg>
