<?xml version="1.0" standalone="no"?>
<!DOCTYPE svg PUBLIC "-//W3C//DTD SVG 1.1//EN" "http://www.w3.org/Graphics/SVG/1.1/DTD/svg11.dtd">
<!--Generator: Xara Designer (www.xara.com), SVG filter version: 6.3.0.4-->
<svg pointer-events="none" stroke-width="0.501" stroke-linejoin="bevel" fill-rule="evenodd" xmlns:xlink="http://www.w3.org/1999/xlink" xmlns="http://www.w3.org/2000/svg" version="1.1" overflow="visible" width="1077.17pt" height="1077.17pt" viewBox="0 0 1077.17 1077.17">
 <defs>
	</defs>
 <g id="Document" fill="none" stroke="black" font-family="Times New Roman" font-size="16" transform="scale(1 -1)">
  <g id="Spread" transform="translate(0 -1077.17)">
   <g id="Layer 1" pointer-events="auto">
    <g id="Group" fill-rule="evenodd" stroke-linejoin="round" stroke-width="1.73">
     <path d="M 712.805,396.184 L 714.575,376.731 L 696.889,367.891 L 698.654,357.275 L 709.27,351.97 L 718.11,332.516 L 709.27,321.9 L 684.503,321.9 L 649.132,314.83 L 645.591,304.214 L 649.132,288.3 L 654.438,281.224 L 663.283,284.759 L 675.663,277.684 L 689.814,281.224 L 703.964,277.684 L 714.575,286.529 L 725.186,290.064 L 746.412,290.064 L 760.562,284.759 L 764.102,309.52 L 776.482,318.364 L 774.713,330.744 L 755.257,327.21 L 746.412,357.275 L 748.181,367.891 L 732.261,374.966 L 726.956,394.421 Z" fill="currentColor" stroke="#ffffff" marker-start="none" marker-end="none"/>
     <g id="Group_1" stroke="none" fill="#ffffff">
      <g id="Group_2">
       <path d="M 718.11,302.444 C 718.11,306.346 714.942,309.514 711.04,309.514 C 707.138,309.514 703.969,306.346 703.969,302.444 C 703.969,298.542 707.138,295.374 711.04,295.374 C 714.942,295.374 718.11,298.542 718.11,302.444 Z" marker-start="none" marker-end="none"/>
      </g>
     </g>
    </g>
   </g>
  </g>
 </g>
</svg>
