<?xml version="1.0" standalone="no"?>
<!DOCTYPE svg PUBLIC "-//W3C//DTD SVG 1.1//EN" "http://www.w3.org/Graphics/SVG/1.1/DTD/svg11.dtd">
<!--Generator: Xara Designer (www.xara.com), SVG filter version: 6.3.0.4-->
<svg pointer-events="none" stroke-width="0.501" stroke-linejoin="bevel" fill-rule="evenodd" xmlns:xlink="http://www.w3.org/1999/xlink" xmlns="http://www.w3.org/2000/svg" version="1.1" overflow="visible" width="1077.17pt" height="1077.17pt" viewBox="0 0 1077.17 1077.17">
 <defs>
	</defs>
 <g id="Document" fill="none" stroke="black" font-family="Times New Roman" font-size="16" transform="scale(1 -1)">
  <g id="Spread" transform="translate(0 -1077.17)">
   <g id="Layer 1" pointer-events="auto">
    <g id="Group" fill-rule="evenodd" stroke-linejoin="round" stroke-width="1.73">
     <path d="M 645.591,304.214 L 636.751,302.445 L 604.91,307.754 L 597.835,304.214 L 592.529,307.754 L 587.224,307.754 L 583.684,297.139 L 585.454,282.989 L 578.379,274.149 L 583.684,259.999 L 596.07,244.078 L 611.985,233.468 L 611.985,208.703 L 619.06,199.862 L 629.676,199.862 L 638.516,206.937 L 652.667,212.243 L 645.591,217.548 L 656.207,226.392 L 647.362,256.458 L 656.207,258.229 L 650.897,267.075 L 645.591,281.224 L 649.132,288.3 Z" fill="currentColor" stroke="#ffffff" marker-start="none" marker-end="none"/>
     <g id="Group_1" stroke="none" fill="#ffffff">
      <g id="Group_2">
       <path d="M 613.751,291.834 C 613.751,295.736 610.582,298.904 606.68,298.904 C 602.778,298.904 599.61,295.736 599.61,291.834 C 599.61,287.932 602.778,284.764 606.68,284.764 C 610.582,284.764 613.751,287.932 613.751,291.834 Z" marker-start="none" marker-end="none"/>
      </g>
     </g>
    </g>
   </g>
  </g>
 </g>
</svg>
