<?xml version="1.0" standalone="no"?>
<!DOCTYPE svg PUBLIC "-//W3C//DTD SVG 1.1//EN" "http://www.w3.org/Graphics/SVG/1.1/DTD/svg11.dtd">
<!--Generator: Xara Designer (www.xara.com), SVG filter version: 6.3.0.4-->
<svg pointer-events="none" stroke-width="0.501" stroke-linejoin="bevel" fill-rule="evenodd" xmlns:xlink="http://www.w3.org/1999/xlink" xmlns="http://www.w3.org/2000/svg" version="1.1" overflow="visible" width="1077.17pt" height="1077.17pt" viewBox="0 0 1077.17 1077.17">
 <defs>
	</defs>
 <g id="Document" fill="none" stroke="black" font-family="Times New Roman" font-size="16" transform="scale(1 -1)">
  <g id="Spread" transform="translate(0 -1077.17)">
   <g id="Layer 1" pointer-events="auto">
    <g id="Group" fill-rule="evenodd" stroke-linejoin="round" stroke-width="1.73">
     <path d="M 774.713,330.744 L 788.863,364.35 L 811.855,369.655 L 815.394,366.12 L 811.855,362.58 L 822.469,355.505 L 841.925,359.045 L 845.461,355.505 L 834.85,351.97 L 827.775,339.591 L 843.695,332.516 L 843.695,323.669 L 859.611,318.364 L 863.151,330.744 L 873.762,332.516 L 879.067,339.591 L 896.758,344.894 L 894.988,353.74 L 873.762,348.434 L 857.846,364.35 L 889.682,389.11 L 930.365,412.107 L 932.135,406.801 L 909.138,387.346 L 914.444,376.731 L 919.749,376.731 L 910.909,353.74 L 903.834,355.505 L 902.063,350.2 L 914.444,337.819 L 933.899,336.049 L 979.887,314.83 L 1002.88,311.289 L 1013.49,295.37 L 1008.19,277.684 L 1041.8,251.154 L 1050.64,256.458 L 1066.56,252.923 L 1077.17,254.694 L 1077.17,449.252 L 1055.94,449.252 L 1006.42,465.167 L 997.578,493.467 L 979.887,495.237 L 971.047,530.607 L 942.745,532.377 L 930.365,525.302 L 912.674,527.072 L 893.218,537.683 L 873.762,511.153 L 843.695,521.768 L 827.775,511.153 L 831.315,497.002 L 824.239,489.927 L 813.624,422.715 L 787.093,413.876 L 767.637,396.184 L 764.102,374.966 L 748.181,367.891 L 746.412,357.275 L 755.257,327.21 Z" fill="currentColor" stroke="#ffffff" marker-start="none" marker-end="none"/>
     <g id="Group_1" stroke="none" fill="#ffffff">
      <g id="Group_2">
       <path d="M 861.377,332.515 C 861.377,336.416 858.208,339.585 854.306,339.585 C 850.404,339.585 847.236,336.416 847.236,332.515 C 847.236,328.613 850.404,325.444 854.306,325.444 C 858.208,325.444 861.377,328.613 861.377,332.515 Z" marker-start="none" marker-end="none"/>
      </g>
     </g>
    </g>
   </g>
  </g>
 </g>
</svg>
