<?xml version="1.0" standalone="no"?>
<!DOCTYPE svg PUBLIC "-//W3C//DTD SVG 1.1//EN" "http://www.w3.org/Graphics/SVG/1.1/DTD/svg11.dtd">
<!--Generator: Xara Designer (www.xara.com), SVG filter version: 6.3.0.4-->
<svg pointer-events="none" stroke-width="0.501" stroke-linejoin="bevel" fill-rule="evenodd" xmlns:xlink="http://www.w3.org/1999/xlink" xmlns="http://www.w3.org/2000/svg" version="1.1" overflow="visible" width="1077.17pt" height="1077.17pt" viewBox="0 0 1077.17 1077.17">
 <defs>
	</defs>
 <g id="Document" fill="none" stroke="black" font-family="Times New Roman" font-size="16" transform="scale(1 -1)">
  <g id="Spread" transform="translate(0 -1077.17)">
   <g id="Layer 1" pointer-events="auto">
    <g id="Group" fill-rule="evenodd" stroke-linejoin="round" stroke-width="1.73">
     <path d="M 737.571,168.023 L 742.876,157.413 L 737.571,152.107 L 737.571,136.187 L 748.181,130.882 L 755.257,106.122 L 769.407,107.888 L 769.407,95.507 L 780.018,102.582 L 790.633,99.047 L 801.244,88.432 L 820.7,93.741 L 824.239,111.426 L 840.156,113.197 L 857.846,99.047 L 868.457,95.507 L 893.218,102.582 L 903.834,123.807 L 919.749,118.501 L 932.135,134.418 L 937.44,132.652 L 948.05,159.182 L 963.971,173.332 L 981.656,176.867 L 995.808,185.713 L 994.037,199.862 L 983.427,206.937 L 981.656,219.317 L 965.741,215.779 L 939.21,219.317 L 898.528,183.942 L 886.143,180.408 L 866.687,183.942 L 836.62,164.487 L 824.239,164.487 L 799.474,157.413 L 764.102,160.948 L 748.181,171.562 Z" fill="currentColor" stroke="#ffffff" marker-start="none" marker-end="none"/>
     <g class="supply-center-dot" stroke="none" fill="#ffffff">
      <g id="Group_2">
       <path d="M 757.022,145.032 C 757.022,148.934 753.853,152.102 749.951,152.102 C 746.049,152.102 742.881,148.934 742.881,145.032 C 742.881,141.13 746.049,137.962 749.951,137.962 C 753.853,137.962 757.022,141.13 757.022,145.032 Z" marker-start="none" marker-end="none"/>
      </g>
     </g>
    </g>
   </g>
  </g>
 </g>
</svg>
