<?xml version="1.0" standalone="no"?>
<!DOCTYPE svg PUBLIC "-//W3C//DTD SVG 1.1//EN" "http://www.w3.org/Graphics/SVG/1.1/DTD/svg11.dtd">
<!--Generator: Xara Designer (www.xara.com), SVG filter version: 6.3.0.4-->
<svg pointer-events="none" stroke-width="0.501" stroke-linejoin="bevel" fill-rule="evenodd" xmlns:xlink="http://www.w3.org/1999/xlink" xmlns="http://www.w3.org/2000/svg" version="1.1" overflow="visible" width="1077.17pt" height="1077.17pt" viewBox="0 0 1077.17 1077.17">
 <defs>
	</defs>
 <g id="Document" fill="none" stroke="black" font-family="Times New Roman" font-size="16" transform="scale(1 -1)">
  <g id="Spread" transform="translate(0 -1077.17)">
   <g id="Layer 1" pointer-events="auto">
    <g id="Group" fill-rule="evenodd" stroke-linejoin="round" stroke-width="1.73">
     <path d="M 70.746,252.923 L 60.135,242.309 L 63.671,224.624 L 47.751,205.168 L 58.366,192.788 L 60.135,176.867 L 65.441,166.257 L 83.127,169.793 L 91.972,168.023 L 106.122,173.332 L 137.959,164.487 L 146.804,159.182 L 152.11,175.098 L 159.185,178.638 L 173.335,176.867 L 189.251,194.553 L 199.867,196.323 L 203.402,203.398 L 194.562,217.548 L 219.323,247.619 L 231.703,256.458 L 258.234,258.229 L 277.69,268.839 L 279.461,281.224 L 272.386,277.684 L 251.159,295.37 L 238.778,300.679 L 237.008,295.37 L 217.552,304.214" fill="currentColor" stroke="#ffffff"/>
     <g id="Group_1" stroke="none" fill="#ffffff">
      <g id="Group_2">
       <path d="M 148.565,268.839 C 148.565,272.741 145.396,275.909 141.494,275.909 C 137.592,275.909 134.424,272.741 134.424,268.839 C 134.424,264.937 137.592,261.769 141.494,261.769 C 145.396,261.769 148.565,264.937 148.565,268.839 Z" marker-start="none" marker-end="none"/>
      </g>
     </g>
    </g>
   </g>
  </g>
 </g>
</svg>
