<?xml version="1.0" standalone="no"?>
<!DOCTYPE svg PUBLIC "-//W3C//DTD SVG 1.1//EN" "http://www.w3.org/Graphics/SVG/1.1/DTD/svg11.dtd">
<!--Generator: Xara Designer (www.xara.com), SVG filter version: 6.3.0.4-->
<svg pointer-events="none" stroke-width="0.501" stroke-linejoin="bevel" fill-rule="evenodd" xmlns:xlink="http://www.w3.org/1999/xlink" xmlns="http://www.w3.org/2000/svg" version="1.1" overflow="visible" width="1077.17pt" height="1077.17pt" viewBox="0 0 1077.17 1077.17">
 <defs>
	</defs>
 <g id="Document" fill="none" stroke="black" font-family="Times New Roman" font-size="16" transform="scale(1 -1)">
  <g id="Spread" transform="translate(0 -1077.17)">
   <g id="Layer 1" pointer-events="auto">
    <g id="Group" fill-rule="evenodd" stroke-linejoin="round" stroke="#ffffff" stroke-width="1.73" fill="currentColor">
     <path d="M 944.515,742.855 L 997.578,751.695 L 1013.49,779.996 L 1057.71,799.452 L 1077.17,825.982 L 1077.17,1077.17 L 979.691,1077.14 L 946.28,1017.01 L 937.44,1022.31 L 914.444,999.318 L 912.674,974.553 L 907.368,965.714 L 907.368,992.244 L 896.758,997.55 L 893.218,986.934 L 882.607,974.553 L 870.226,948.023 L 875.532,930.338 L 863.151,926.797 L 847.231,932.108 L 843.695,935.643 L 850.77,944.488 L 836.62,956.867 L 824.239,953.328 L 834.85,923.263 L 845.461,916.188 L 845.461,902.037 L 834.85,905.573 L 827.775,902.037 L 808.319,871.972 L 829.545,856.052 L 826.005,845.437 L 817.164,840.132 L 785.323,854.282 L 781.788,838.366 L 790.633,829.521 L 803.014,822.446 L 799.474,817.141 L 767.637,824.216 L 753.487,850.747 L 753.487,866.662 L 732.261,877.277 L 728.726,886.118 L 787.093,884.351 L 808.319,893.193 L 811.855,916.188 L 801.244,925.034 L 737.571,949.793 L 716.345,946.253 L 709.27,953.328 L 702.194,948.023 L 686.274,925.034 L 684.503,912.648 L 695.119,903.807 L 693.349,870.203 L 709.27,838.366 L 711.04,824.216 L 725.186,802.991 L 732.261,772.922"/>
    </g>
   </g>
  </g>
 </g>
</svg>
