<?xml version="1.0" standalone="no"?>
<!DOCTYPE svg PUBLIC "-//W3C//DTD SVG 1.1//EN" "http://www.w3.org/Graphics/SVG/1.1/DTD/svg11.dtd">
<!--Generator: Xara Designer (www.xara.com), SVG filter version: 6.3.0.4-->
<svg pointer-events="none" stroke-width="0.501" stroke-linejoin="bevel" fill-rule="evenodd" xmlns:xlink="http://www.w3.org/1999/xlink" xmlns="http://www.w3.org/2000/svg" version="1.1" overflow="visible" width="1077.17pt" height="1077.17pt" viewBox="0 0 1077.17 1077.17">
 <defs>
	</defs>
 <g id="Document" fill="none" stroke="black" font-family="Times New Roman" font-size="16" transform="scale(1 -1)">
  <g id="Spread" transform="translate(0 -1077.17)">
   <g id="Layer 1" pointer-events="auto">
    <g id="Group" fill-rule="evenodd" stroke-linejoin="round" stroke-width="1.73">
     <path d="M 732.261,772.922 L 725.186,764.081 L 728.726,748.161 L 711.04,719.859 L 712.805,709.25 L 726.956,707.48 L 732.261,702.174 L 721.65,702.174 L 707.5,693.329 L 705.73,684.484 L 684.503,686.254 L 656.207,682.72 L 652.667,675.645 L 657.972,670.339 L 675.663,668.57 L 696.889,670.339 L 716.345,649.114 L 723.42,629.66 L 744.646,627.888 L 757.027,634.963 L 776.482,659.724 L 790.633,663.265 L 797.708,656.19 L 808.319,661.495 L 806.549,666.799 L 810.089,689.795 L 841.925,709.25 L 864.922,707.48 L 910.909,734.011 L 944.515,742.855 L 997.578,751.695" fill="currentColor" stroke="#ffffff"/>
     <g id="Group_1" stroke="none" fill="#ffffff">
      <g id="Group_2">
       <path d="M 746.406,702.175 C 746.406,706.077 743.238,709.245 739.336,709.245 C 735.434,709.245 732.266,706.077 732.266,702.175 C 732.266,698.273 735.434,695.105 739.336,695.105 C 743.238,695.105 746.406,698.273 746.406,702.175 Z" marker-start="none" marker-end="none"/>
      </g>
     </g>
    </g>
   </g>
  </g>
 </g>
</svg>
