<?xml version="1.0" standalone="no"?>
<!DOCTYPE svg PUBLIC "-//W3C//DTD SVG 1.1//EN" "http://www.w3.org/Graphics/SVG/1.1/DTD/svg11.dtd">
<!--Generator: Xara Designer (www.xara.com), SVG filter version: 6.3.0.4-->
<svg pointer-events="none" stroke-width="0.501" stroke-linejoin="bevel" fill-rule="evenodd" xmlns:xlink="http://www.w3.org/1999/xlink" xmlns="http://www.w3.org/2000/svg" version="1.1" overflow="visible" width="1077.17pt" height="1077.17pt" viewBox="0 0 1077.17 1077.17">
 <defs>
	</defs>
 <g id="Document" fill="none" stroke="black" font-family="Times New Roman" font-size="16" transform="scale(1 -1)">
  <g id="Spread" transform="translate(0 -1077.17)">
   <g id="Layer 1" pointer-events="auto">
    <g id="Group" fill-rule="evenodd" stroke-linejoin="round" stroke-width="1.73">
     <path d="M 486.405,673.875 L 489.94,647.344 L 488.174,636.734 L 498.785,615.509 L 493.48,608.434 L 493.48,603.129 L 498.785,585.437 L 511.166,583.669 L 520.011,599.588 L 539.467,601.359 L 551.848,627.888 L 550.083,643.809 L 555.388,663.265 L 569.539,668.57 L 580.149,673.875 L 585.454,691.56 L 576.614,709.25 L 565.998,711.015 L 567.768,748.161 L 583.684,774.69 L 606.68,788.841 L 620.831,806.527 L 613.755,818.906 L 617.29,834.827 L 627.906,848.977 L 640.287,843.672 L 629.676,907.343 L 604.91,925.034 L 603.145,917.957 L 583.684,919.722 L 587.224,902.037 L 573.073,907.343 L 550.083,854.282 L 544.772,848.977 L 546.542,829.521 L 530.622,810.065 L 532.392,799.452 L 516.476,797.686 L 512.936,742.855 L 504.091,732.24 L 507.63,719.859 L 493.48,672.104 Z" fill="currentColor" stroke="#ffffff" marker-start="none" marker-end="none"/>
     <g class="supply-center-dot" stroke="none" fill="#ffffff">
      <g id="Group_2">
       <path d="M 578.374,686.255 C 578.374,690.156 575.205,693.325 571.304,693.325 C 567.402,693.325 564.233,690.156 564.233,686.255 C 564.233,682.353 567.402,679.184 571.304,679.184 C 575.205,679.184 578.374,682.353 578.374,686.255 Z" marker-start="none" marker-end="none"/>
      </g>
     </g>
    </g>
   </g>
  </g>
 </g>
</svg>
