<?xml version="1.0" standalone="no"?>
<!DOCTYPE svg PUBLIC "-//W3C//DTD SVG 1.1//EN" "http://www.w3.org/Graphics/SVG/1.1/DTD/svg11.dtd">
<!--Generator: Xara Designer (www.xara.com), SVG filter version: 6.3.0.4-->
<svg pointer-events="none" stroke-width="0.501" stroke-linejoin="bevel" fill-rule="evenodd" xmlns:xlink="http://www.w3.org/1999/xlink" xmlns="http://www.w3.org/2000/svg" version="1.1" overflow="visible" width="1077.17pt" height="1077.17pt" viewBox="0 0 1077.17 1077.17">
 <defs>
	</defs>
 <g id="Document" fill="none" stroke="black" font-family="Times New Roman" font-size="16" transform="scale(1 -1)">
  <g id="Spread" transform="translate(0 -1077.17)">
   <g id="Layer 1" pointer-events="auto">
    <g id="Group" fill-rule="evenodd" stroke-linejoin="round" stroke-width="1.73">
     <path d="M 488.174,327.21 L 486.405,320.135 L 491.71,307.754 L 498.785,323.669 L 505.86,321.9 L 511.166,293.604 L 541.237,261.763 L 585.454,229.929 L 583.684,245.848 L 596.07,244.078 L 583.684,259.999 L 578.379,274.149 L 585.454,282.989 L 583.684,297.139 L 587.224,307.754 L 571.303,311.289 L 567.768,328.974 L 550.083,336.049 L 544.772,355.505 L 528.857,351.97 L 520.011,360.815 L 511.166,351.97 L 488.174,350.2 L 493.48,344.894 Z" fill="currentColor" stroke="#ffffff" marker-start="none" marker-end="none"/>
     <g id="Group_1" stroke="none" fill="#ffffff">
      <g id="Group_2">
       <path d="M 509.396,332.515 C 509.396,336.416 506.227,339.585 502.325,339.585 C 498.423,339.585 495.255,336.416 495.255,332.515 C 495.255,328.613 498.423,325.444 502.325,325.444 C 506.227,325.444 509.396,328.613 509.396,332.515 Z" marker-start="none" marker-end="none"/>
      </g>
     </g>
    </g>
   </g>
  </g>
 </g>
</svg>
