<?xml version="1.0" standalone="no"?>
<!DOCTYPE svg PUBLIC "-//W3C//DTD SVG 1.1//EN" "http://www.w3.org/Graphics/SVG/1.1/DTD/svg11.dtd">
<!--Generator: Xara Designer (www.xara.com), SVG filter version: 6.3.0.4-->
<svg pointer-events="none" stroke-width="0.501" stroke-linejoin="bevel" fill-rule="evenodd" xmlns:xlink="http://www.w3.org/1999/xlink" xmlns="http://www.w3.org/2000/svg" version="1.1" overflow="visible" width="1077.17pt" height="1077.17pt" viewBox="0 0 1077.17 1077.17">
 <defs>
	</defs>
 <g id="Document" fill="none" stroke="black" font-family="Times New Roman" font-size="16" transform="scale(1 -1)">
  <g id="Spread" transform="translate(0 -1077.17)">
   <g id="Layer 1" pointer-events="auto">
    <g id="Group" stroke-linejoin="round" stroke-width="1.73" fill-rule="evenodd" stroke="#ffffff" fill="currentColor">
     <path d="M 420.962,270.608 L 436.878,251.154 L 438.648,242.309 L 452.798,222.854 L 479.329,212.243 L 488.174,194.553 L 512.936,171.562 L 520.011,145.032 L 511.166,129.112 L 504.091,129.112 L 504.091,134.418 L 488.174,130.882 L 465.179,130.882 L 454.568,136.187 L 445.723,134.418 L 436.878,125.577 L 417.422,106.122 L 412.117,107.888 L 396.196,100.811 L 394.43,116.732 L 385.585,120.272 L 385.585,166.257 L 389.125,166.257 L 396.196,205.168 L 392.661,222.854 L 385.585,222.854 L 385.585,229.929 L 394.43,237.003 L 397.966,247.619 L 397.966,261.763 L 396.196,270.608 Z" marker-start="none" marker-end="none"/>
    </g>
   </g>
  </g>
 </g>
</svg>
