<?xml version="1.0" standalone="no"?>
<!DOCTYPE svg PUBLIC "-//W3C//DTD SVG 1.1//EN" "http://www.w3.org/Graphics/SVG/1.1/DTD/svg11.dtd">
<!--Generator: Xara Designer (www.xara.com), SVG filter version: 6.3.0.4-->
<svg pointer-events="none" stroke-width="0.501" stroke-linejoin="bevel" fill-rule="evenodd" xmlns:xlink="http://www.w3.org/1999/xlink" xmlns="http://www.w3.org/2000/svg" version="1.1" overflow="visible" width="1077.17pt" height="1077.17pt" viewBox="0 0 1077.17 1077.17">
 <defs>
	</defs>
 <g id="Document" fill="none" stroke="black" font-family="Times New Roman" font-size="16" transform="scale(1 -1)">
  <g id="Spread" transform="translate(0 -1077.17)">
   <g id="Layer 1" pointer-events="auto">
    <g id="Group" stroke-linejoin="round" stroke-width="1.73" fill-rule="evenodd" stroke="#ffffff" fill="currentColor">
     <path d="M 65.441,166.257 L 83.127,169.793 L 91.972,168.023 L 106.122,173.332 L 137.959,164.487 L 146.804,159.182 L 152.11,175.098 L 159.185,178.638 L 173.335,176.867 L 189.251,194.553 L 199.867,196.323 L 203.402,203.398 L 251.159,203.398 L 265.31,199.862 L 272.386,208.703 L 362.589,208.703 L 364.36,191.017 L 360.824,175.098 L 367.899,162.717 L 374.975,162.717 L 383.816,168.023 L 385.585,166.257 L 385.585,120.272 L 374.975,118.501 L 367.899,111.426 L 359.054,113.197 L 316.602,122.037 L 298.917,116.732 L 265.31,129.112 L 206.943,132.652 L 187.487,129.112 L 175.101,122.037 L 157.415,127.341 L 148.57,116.732 L 139.729,113.197 L 120.273,120.272 L 120.273,129.112 L 113.198,123.807 L 81.357,132.652 L 74.282,145.032 L 72.516,159.182 L 65.441,157.413 Z" marker-start="none" marker-end="none"/>
    </g>
   </g>
  </g>
 </g>
</svg>
